<?xml version="1.0" encoding="UTF-8"?><svg id="a" xmlns="http://www.w3.org/2000/svg" viewBox="0 0 504 212.98"><path d="M131.3,99.9c0-9.86-4.38-16.88-15.78-16.88-9.86,0-17.97,6.58-21.92,12.28v71.46h-28.06v-66.86c0-9.86-4.38-16.88-15.78-16.88-9.65,0-17.76,6.58-21.92,12.49v71.24H0V60.88h27.84v13.81c4.38-6.36,18.41-16.44,34.63-16.44s25.42,7.23,29.37,19.29c6.14-9.64,20.17-19.29,36.39-19.29,19.51,0,31.12,10.3,31.12,32v76.5h-28.06v-66.86h0Z" fill="#000" stroke-width="0"/><path d="M186.75,60.88h27.84v105.87h-27.84V60.88Z" fill="#000" stroke-width="0"/><path d="M242.2,20.55h27.84v146.21h-27.84V20.55h0Z" fill="#000" stroke-width="0"/><path d="M345.01,55.62c31.57,0,53.04,23.67,53.04,58.31v6.14h-78.69c1.75,13.37,12.5,24.55,30.47,24.55,9.87,0,21.48-3.95,28.28-10.52l12.28,17.98c-10.52,9.64-27.18,14.69-43.62,14.69-32.22,0-56.56-21.7-56.56-55.68,0-30.69,22.58-55.46,54.8-55.46h0ZM318.93,101.21h52.17c-.66-10.08-7.67-23.45-26.08-23.45-17.32,0-24.77,12.93-26.08,23.45h-.01Z" fill="#000" stroke-width="0"/><path d="M422.89,130.81c7.67,7.23,23.46,14.47,36.61,14.47,12.06,0,17.76-4.82,17.76-11.4,0-7.23-9.65-9.21-21.26-11.4-18.2-3.51-41.65-8.11-41.65-33.54,0-17.76,15.56-33.32,43.4-33.32,17.97,0,32.22,6.14,42.74,14.47l-11.18,19.07c-6.36-6.8-18.41-12.28-31.34-12.28-10.08,0-16.66,4.6-16.66,10.52s8.33,7.89,20.16,10.3c18.2,3.51,42.53,8.55,42.53,35.07,0,19.29-16.44,33.98-45.81,33.98-18.41,0-36.17-6.14-47.35-16.44l12.05-19.51h0Z" fill="#000" stroke-width="0"/><polygon points="179.55 24.78 234.26 0 199.36 47.41 195.44 32.19 179.55 24.78" fill="#0095d4" stroke-width="0"/><path d="M63.34,189.15h11.15c5.18,0,8,3.5,8,7.68s-2.86,7.68-8,7.68h-6.08v8.47h-5.08v-23.83h.01ZM73.81,193.62h-5.39v6.43h5.39c2,0,3.5-1.25,3.5-3.21s-1.5-3.22-3.5-3.22h0Z" fill="#0095d4" stroke-width="0"/><path d="M112.31,208.95h-10.22l-1.5,4.04h-5.79l9.22-23.83h6.36l9.18,23.83h-5.79l-1.47-4.04h.01ZM103.49,204.48h7.43l-3.72-10.26-3.71,10.26Z" fill="#0095d4" stroke-width="0"/><path d="M144.92,204.52h-3.72v8.47h-5.07v-23.83h11.15c4.97,0,8,3.25,8,7.68s-2.64,6.47-5.22,7.07l5.36,9.08h-5.83l-4.68-8.47h.01ZM146.53,193.62h-5.32v6.43h5.32c2.04,0,3.57-1.22,3.57-3.21s-1.54-3.22-3.57-3.22h0Z" fill="#0095d4" stroke-width="0"/><path d="M178.59,193.62h-6.97v-4.47h19.01v4.47h-6.93v19.37h-5.11v-19.37Z" fill="#0095d4" stroke-width="0"/><path d="M213.3,197.44v15.54h-5.08v-23.83h5.22l11.04,14.97v-14.97h5.07v23.83h-4.89l-11.37-15.54h0Z" fill="#0095d4" stroke-width="0"/><path d="M248.62,189.15h16.87v4.47h-11.79v5.04h11.54v4.47h-11.54v5.39h11.79v4.47h-16.87v-23.83h0Z" fill="#0095d4" stroke-width="0"/><path d="M292.58,204.52h-3.71v8.47h-5.08v-23.83h11.15c4.97,0,8,3.25,8,7.68s-2.64,6.47-5.22,7.07l5.36,9.08h-5.83l-4.68-8.47h0ZM294.19,193.62h-5.32v6.43h5.32c2.04,0,3.57-1.22,3.57-3.21s-1.54-3.22-3.57-3.22h0Z" fill="#0095d4" stroke-width="0"/><path d="M322.26,205.77c1.68,1.75,4.29,3.22,7.58,3.22,2.79,0,4.15-1.29,4.15-2.64,0-1.75-2.22-2.25-4.82-2.89-3.9-.89-8.9-1.97-8.9-7.4,0-3.96,3.43-7.25,9.04-7.25,3.79,0,6.94,1.14,9.29,3.32l-2.82,3.72c-1.93-1.79-4.5-2.61-6.93-2.61-2.18,0-3.4.96-3.4,2.39,0,1.54,2.18,2.04,4.75,2.64,3.93.93,8.93,2.11,8.93,7.5,0,4.36-3.11,7.65-9.54,7.65-4.57,0-7.86-1.54-10.08-3.79l2.75-3.86h0Z" fill="#0095d4" stroke-width="0"/><path d="M373.23,202.98h-11.26v10.01h-5.08v-23.83h5.08v9.36h11.26v-9.36h5.11v23.83h-5.11v-10.01Z" fill="#0095d4" stroke-width="0"/><path d="M397.36,189.15h5.08v23.83h-5.08v-23.83Z" fill="#0095d4" stroke-width="0"/><path d="M421.5,189.15h11.15c5.18,0,8,3.5,8,7.68s-2.86,7.68-8,7.68h-6.08v8.47h-5.08v-23.83h0ZM431.97,193.62h-5.39v6.43h5.39c2,0,3.5-1.25,3.5-3.21s-1.5-3.22-3.5-3.22h0Z" fill="#0095d4" stroke-width="0"/></svg>